<svg xmlns="http://www.w3.org/2000/svg" xmlns:xlink="http://www.w3.org/1999/xlink" viewBox="0 0 88.26 89.06"><defs><style>.cls-1{fill:url(#linear-gradient);}.cls-2{fill:#231f20;}.cls-3{opacity:0.9;}.cls-4{fill:#fff;}.cls-5{opacity:0.47;}.cls-6{opacity:0.66;}.cls-7{opacity:0.42;}</style><linearGradient id="linear-gradient" x1="8.14" y1="22.22" x2="78.59" y2="67.98" gradientUnits="userSpaceOnUse"><stop offset="0.33" stop-color="blue" stop-opacity="0.83"/><stop offset="0.4" stop-color="#0000fb" stop-opacity="0.83"/><stop offset="0.46" stop-color="#00e" stop-opacity="0.84"/><stop offset="0.53" stop-color="#0000d7" stop-opacity="0.85"/><stop offset="0.59" stop-color="#0000b8" stop-opacity="0.87"/><stop offset="0.65" stop-color="#000090" stop-opacity="0.9"/><stop offset="0.71" stop-color="#00005f" stop-opacity="0.92"/><stop offset="0.76" stop-color="#000026" stop-opacity="0.96"/><stop offset="0.79" stop-opacity="0.98"/></linearGradient></defs><g id="Layer_2" data-name="Layer 2"><g id="Layer_1-2" data-name="Layer 1"><circle class="cls-1" cx="43.37" cy="45.1" r="42"/><path class="cls-2" d="M87.78,44.77c0,.42.4.27.48.33C88.13,44.41,87.68,44.79,87.78,44.77Z"/><polygon class="cls-2" points="86.25 38.16 86.43 38.25 85.87 37.35 86.25 38.16"/><path class="cls-2" d="M84.87,32.09c-.52.77.68,2.15.72,3.29l-.12.21.69.37A22.68,22.68,0,0,1,84.87,32.09Z"/><path class="cls-2" d="M85.17,28.4c-.19.3-.48-.61.19.79a.65.65,0,0,1,0-.17C85.33,28.89,85.26,28.71,85.17,28.4Z"/><path class="cls-2" d="M85.38,29c.25.64.06-.5,0,0Z"/><path class="cls-2" d="M84,26.21l.62.7c.06-.23-.25-1,0-.75C84.09,25.38,84,25.63,84,26.21Z"/><path class="cls-2" d="M83.18,25.67l.29.37C83.5,25.94,83.47,25.82,83.18,25.67Z"/><path class="cls-2" d="M84.09,26.82,83.47,26c0,.17-.25.27.27.37C83.51,26.43,83.78,26.51,84.09,26.82Z"/><path class="cls-2" d="M84.23,27.37c.09.5.2,1.14-.35.42C84.56,29.31,85,28.89,84.23,27.37Z"/><path class="cls-2" d="M84.06,32a5,5,0,0,1,0,.67l.36.46a1.88,1.88,0,0,1-.15-.7C84.23,32.19,84.16,32,84.06,32Z"/><path class="cls-2" d="M81.68,21.14c-.16,0-.19.47-.32.63l.49.47C81.77,21.9,81.51,21.3,81.68,21.14Z"/><path class="cls-2" d="M81.36,21.77l-.73-.7C81.06,21.83,81.25,21.9,81.36,21.77Z"/><polygon class="cls-2" points="82.4 25.88 83.58 27.07 82.26 25.61 82.4 25.88"/><polygon class="cls-2" points="79.55 18.01 80.17 18.25 79.14 17.77 79.55 18.01"/><path class="cls-2" d="M78,16.06c.51.12,0-.74.43-.53a5.57,5.57,0,0,0-1.61-1A3.57,3.57,0,0,1,78,16.06Z"/><path class="cls-2" d="M76,14.11a5.83,5.83,0,0,0,.83.43A3,3,0,0,0,76,14.11Z"/><path class="cls-2" d="M79.77,19.65a1,1,0,0,0-.1-.87l-.12.56Z"/><path class="cls-2" d="M79.55,19.36v0l-.48-.68Z"/><path class="cls-2" d="M79.83,19.73l-.06-.08C79.76,19.71,79.76,19.73,79.83,19.73Z"/><path class="cls-2" d="M81.58,23.47c-.5-.37-1.33-1.23-1.06-.08C81,23.59,80.83,22.92,81.58,23.47Z"/><path class="cls-2" d="M79.67,20.41c.18.3.31.62.47.92.08-.08.12-.32.37-.15C80.23,20.92,80,20.65,79.67,20.41Z"/><polygon class="cls-2" points="79.26 20.09 79.67 20.41 79.48 20.09 79.26 20.09"/><path class="cls-2" d="M76.86,15.7a4.6,4.6,0,0,1-1.18-.94,13.93,13.93,0,0,0,1.11,1.4C76.94,16.13,77.3,16.17,76.86,15.7Z"/><path class="cls-2" d="M78.19,17.46l-.08-.06C78.12,17.47,78.14,17.52,78.19,17.46Z"/><polygon class="cls-2" points="71.76 11.01 71.77 11.13 71.83 11.08 71.76 11.01"/><path class="cls-2" d="M76.79,16.29a1.36,1.36,0,0,0,.76.61,8.73,8.73,0,0,1-.76-.74C76.72,16.17,76.68,16.19,76.79,16.29Z"/><path class="cls-2" d="M74.75,13.14l.38.72C75.08,13.59,74.89,13.12,74.75,13.14Z"/><path class="cls-2" d="M78.11,17.21l.06,0C78.15,17.07,78.13,17.12,78.11,17.21Z"/><path class="cls-2" d="M78.11,17.21a2.08,2.08,0,0,0-.56-.31,4.93,4.93,0,0,0,.56.5A.6.6,0,0,1,78.11,17.21Z"/><path class="cls-2" d="M68.78,12.17c.27-.25,1.46.07,1.86,1.07.89.41,1.31-1,1.13-2.12-.14.13-.21.21-1.17-.21.18.35,1.36,1.83.51,1.54-1.1-.72-.75-.77-1.12-1.34.13.7-1.77-.43-2,.33l1,.46C69,12,68.59,11.91,68.78,12.17Z"/><path class="cls-2" d="M73.18,12.46l.35.25a4.62,4.62,0,0,1-.72-1.38c-.65-.33-.86-.32-1-.25l1.5,1.43Z"/><path class="cls-2" d="M74.9,14c-.51,0-1.4-.47-1.27.26.89.82.84.36,1.48.75-1.4-1.38.55.26-.23-1a7.21,7.21,0,0,1,.8.72c-.2-.3-.39-.61-.55-.9v.05h0c0,.1,0,.14,0,.05l0,0a.34.34,0,0,1-.18,0c-.32-.48,0-.14.18,0l.06,0h0c-.49-.45-1.08-.8-1.61-1.2A18.17,18.17,0,0,0,74.9,14Z"/><path class="cls-2" d="M79.2,23a.11.11,0,0,1,0-.1C79.14,22.81,79.09,22.79,79.2,23Z"/><path class="cls-2" d="M79,22.19a.89.89,0,0,1,.53.5c.09.4-.18.11-.29.2.24.17.76.65.5-.19l-.12-.08c-.28-.74-.35-1.9-.23-1.82A3.37,3.37,0,0,0,79,22.19Z"/><path class="cls-2" d="M77.08,18.05A12.75,12.75,0,0,0,75.87,17l.27.85.14-.17C76.8,18.38,76.87,18.07,77.08,18.05Z"/><path class="cls-2" d="M71.75,10.71l.46-.2c-.37-.06-.78-.07-1.17-.1Z"/><polygon class="cls-2" points="69.99 9.45 70.29 9.19 69.68 9.03 69.99 9.45"/><path class="cls-2" d="M9.3,65.27l.32.31A1.47,1.47,0,0,0,9.3,65.27Z"/><path class="cls-2" d="M7.83,62.48l-.21,0C7.78,62.58,7.88,62.6,7.83,62.48Z"/><path class="cls-2" d="M20,7.3c-.8.06-1.82,0-1.49.33l.42.25A2.71,2.71,0,0,1,20,7.3Z"/><path class="cls-2" d="M2.29,36.86l.15-.17-.29-.53A5.41,5.41,0,0,0,2.29,36.86Z"/><path class="cls-2" d="M4,37.66l-.4.79A4.33,4.33,0,0,0,4,37.66Z"/><path class="cls-2" d="M21.23,77.4a5.47,5.47,0,0,0,.66-.09C21.24,76.88,21.41,77.25,21.23,77.4Z"/><path class="cls-2" d="M49.68,1.22A7.51,7.51,0,0,0,48.19.73C48.9,1.09,49.43,1.55,49.68,1.22Z"/><path class="cls-2" d="M4.62,66.43c.23.22.37.28.45.23C4.85,66.43,4.69,66.32,4.62,66.43Z"/><path class="cls-2" d="M46.41.62l.32.11a5.48,5.48,0,0,1,1.46,0A2.11,2.11,0,0,0,46.41.62Z"/><path class="cls-2" d="M76.14,67.2a.87.87,0,0,0,.11-.09S76.18,67.12,76.14,67.2Z"/><path class="cls-2" d="M86.84,50.94c0,.2-.06.53-.1.83A2.56,2.56,0,0,0,86.84,50.94Z"/><path class="cls-2" d="M62.62,4.78c.43.17.09,0,0,0Z"/><path class="cls-2" d="M63.83,7.26a.33.33,0,0,0-.26.11A.46.46,0,0,1,63.83,7.26Z"/><path class="cls-2" d="M41.92,3.24h0C42,3.32,42,3.3,41.92,3.24Z"/><path class="cls-2" d="M63.16,5.26a3.08,3.08,0,0,0-.47-.37A4.73,4.73,0,0,0,63.16,5.26Z"/><path class="cls-2" d="M63.17,5l.34.22C63.6,5.21,63.57,5.14,63.17,5Z"/><path class="cls-2" d="M62,4.52a3.78,3.78,0,0,1,.66.37c-.07-.07-.09-.11-.07-.11Z"/><path class="cls-2" d="M48.7,85.4l.1,0C49.19,85.18,49,85.24,48.7,85.4Z"/><path class="cls-2" d="M14.09,17.93s0,0,0-.05l-.06,0Z"/><path class="cls-2" d="M13.34,19.24a1.33,1.33,0,0,1,.71-1.32l-1.25-.48Q13.06,18.36,13.34,19.24Z"/><path class="cls-2" d="M13.84,71.28l-.39-1c1.32.49,1.72,1.28,1.5.22-.53.39-1.28-.27-1.89-1s-1.23-1.53-1.83-1.2l-.17-.7c.11.16.19.14.29.3C11.09,66.43,10,67.6,9.22,66,9,65.46,9,65,9.3,65.27l-1-1c-.17-.35.08-.38.25,0-.37-.56-.66-1.17-1-1.76h0a9.77,9.77,0,0,1-1.17-.86c0-.55.24.17.34,0-.26-.29-.54-.58-.78-.89.08-.29.28-.24.49,0a2.41,2.41,0,0,1,.63.91c.39-.75.21-.91-.09-1.2a2.44,2.44,0,0,1-.68-1.91l.52.92c.49-.91,0-1.57,0-2.8-.15.31-.33,2.59-1.07,1.57a2.15,2.15,0,0,0-.6-1.33c.46-.15.19-.73,0-1.49l.63-.12c-.39-.77-.69-.63-1.09-1.06a1.32,1.32,0,0,1,.63-1.54c-.12-1.52-.62,1.2-1-.58a5,5,0,0,0-.23-1.75c-.16-.56-.45-1.14-.65-1.9.18-.92.4.13.56-.21l-.54-.77c0-.19.16-.14.24-.11-.23-.67-.64,0-.87-1.09-.35-.14-.16-.71.1-1.38a2.54,2.54,0,0,0,.19-2.16c.2-.31.39.18.64.1C3.33,41,3.43,41.23,3,39.66l.61-1.21c-.62.85-1-.42-1.29-1.59a6.74,6.74,0,0,0-.65.73,12,12,0,0,1,0-1.8c.15-.18.32,0,.51.37a2.9,2.9,0,0,0-.07-.34c.39-.56.67-.15.9.35l-.54.52c.32.5.69,1,1.07,1a1.46,1.46,0,0,1-.09-.58c.09.13.17.21.24.18s-.06-.25-.14-.55l.8-.22-.26-.15,1-2c-.08-.43-.18-.85-.28-1.28s-.12-.87-.15-1.34a8.89,8.89,0,0,1,.29-3.25c.2.79.73.46,1.28.74-.87.38-.41,1.92-1,3.06.29-.6.52-.37.56-.17L6,29.73c.45.24.51-.32,1-.76-1.11,0,.14-1.82.27-2.81.33.11.53.47,0,1.46,1.23-.77-.39-2,.86-2.8-.14.25-.27.35-.17.53.08-.71,1.12-2,1.17-1.48l-.14.24c.27-.38.58-.87.89-1.4s.73-1.05,1-1.58c.63-1,1-2,.83-2.38a5.11,5.11,0,0,1,.69,1c0-1.43,0-2.88.13-4.42.33.72,2.33,1.11,1.61,2.52a3.9,3.9,0,0,0,1.28-1.39c-.3.11-1.3-.24-1-.57a10.2,10.2,0,0,0,2.39-.65c-.44.18-.84-1-.27-1.47,0,.21.78.82.67,1.08a15.21,15.21,0,0,1,.65-2c-.24.43.53.79,1,.81-.28-.07,1.23-.89,1.53-1.26l-.75.23c1.67-1.07.73-2.44,2.52-3.48-.1.33.23,1.54,1.15,1.14a10.89,10.89,0,0,1,.45-2.17,5.52,5.52,0,0,1,1.58-2.49l.46.14a11.25,11.25,0,0,1,1.17-.92c-.27.53-.76,1.54-1.28,2.51s-1.05,1.93-1.45,2.53c.79-.11.37.25,1.35-.26.48.11-.33.68-.61.83l2.37-.92c-.19-.28.18-.65.56-1s.82-.62.67-.86a21.71,21.71,0,0,0-2.28,1.77c-.2-.28,0-.88.4-1.51a3.55,3.55,0,0,1,.87-.91,4.54,4.54,0,0,1,1.23-.6c.55.09.09,1.24.22,1.44A3.23,3.23,0,0,1,30.68,7l-.61.61a2.25,2.25,0,0,0,1.2-.73,1.59,1.59,0,0,1,1.48-.38c.43-.06,1.43.53,1.4.13-.83-.58-1.59-2.84-1.24-3.52.08,0,.71,0,1.38.09A5.61,5.61,0,0,1,36,3.56c.81.48-.82,1.57-.12,2,0-.19.34-.47.49-.57.47.09-.09.59.86.36.06-.69,2-.24.37-.64.94-.31,1-.07,2.15-.16-.41-.42.9-1.54,1.91-1.79-.05.18.18.39.29.49.51,0,1,0,1.38,0s.8.12,1.17.18a21.93,21.93,0,0,0,2.43.29c.16.17,1,.43.62.69a2.15,2.15,0,0,1,1.12-.2c1,.75-1.27-.11-.52.73.11-.39,1.51-.33,2.37-.45-.15-.64-1.87-.4-2.7-.28.08-.84,1.62-1.5,3.72-1.57,1.64.09.57.68.88.61a4.53,4.53,0,0,0,2.8.09,2.5,2.5,0,0,1,2.36.47c.77.85-.31,1-.23,1.47a4,4,0,0,1-1.46-.63,5,5,0,0,0-1.18-.53l1,.51a3.06,3.06,0,0,1-1.73-.28c.68.59,4.79,1.49,6.65,2.91.44,0,1.15.15.94-.19l-.68-.25c-.43-.68,1.49.06.74-.53.51.08,1.08.13,1.66.27a5,5,0,0,1,.88.29,4.31,4.31,0,0,1,.83.58l-.08.66c.06-.17-.6-.79-1-.83.65.07,1.4,1.82,2.36,1.47l-.61-.88c1,.28,2.49.32,3.37,1.28-.12-.84-.27-.12-.61-1.23.19,1.14-2.78-1.74-2.19-.3C65.78,6.44,65,6.42,64.23,5.27c-.06.2.21.53-.72,0a1.25,1.25,0,0,1-.29,0l-.06,0,0,0c-.05,0-.06,0,0,0a1.18,1.18,0,0,1,.35.51c-.69.18-2.19-.56-2.8-.58-.52-.36.33-.1.11-.45-.3,0-.61,0-.92,0,.1-.44-1.3-1.27.2-1L58.9,3.32a5,5,0,0,0-2.38-1c-.6-.25-1.7.08-1.07-.12l-2.12-.26V1.8a13.53,13.53,0,0,0-3.22-.35A11.84,11.84,0,0,1,46.73.73a8.63,8.63,0,0,1-2.61,0L43.9.33C43,.4,41.15,0,40.78.45A1.88,1.88,0,0,0,39.61,0,5,5,0,0,0,38,.14a27.84,27.84,0,0,1-3.22.61l0,.51A14.53,14.53,0,0,0,31.43,2.4l.2.41c-1,.58-2.92.59-4.65,1.27.05-.2.51-.32.86-.34A3.9,3.9,0,0,0,26.13,4,9.15,9.15,0,0,0,24.66,5a7.09,7.09,0,0,1-2.85,1.55,1.82,1.82,0,0,1-1,.62A.26.26,0,0,0,20.87,7l-.18.11c-.22,0-.46.08-.71.15a2.23,2.23,0,0,0,.62-.1,10.62,10.62,0,0,0-1.22,1l-.47-.27-.1.08c-.58.14-.26.42.2.57a2,2,0,0,0-.45.66c-.81-.36-1,1.1-2,.8,0,.28-.56.77-1,1.29s-.82,1.17-.65,1.59c-.09-.07-.25,0,0-.21a3.33,3.33,0,0,0-1.3,1.25l-.62-.26a10.5,10.5,0,0,0-.38,1.54c-.82.34-1.22.46-1-.48-.81,2-.91,1.39-1.47,3.12l-.26-.32c-.35.5-.51,1.59-1,1.68C7.28,19.76,5,24.63,3,27.56c.69-.07.38.23,0,.64s-.72.92-.32,1.14c-.33.09-.65.5-.67-.12C1.67,31,.61,31.63,1.07,33.06c-.32.13-.29-.48-.49-.35,0,.16.08.62-.12.76s-.16-.32-.2-.63c-.43,1.83.36,2.2,1.1,2.5a2.39,2.39,0,0,0-.51,1,1.91,1.91,0,0,0,.29,1c-.3.27-.65.75-.57-.38-.13.61-1,3.79-.32,3.92-.17.18-.09.88,0,1A29,29,0,0,0,0,44.86l.13-.38c.71.55.16,1.14.31,2.25l-.08,0a3.79,3.79,0,0,0-.06,1.83,1.75,1.75,0,0,1,.06.53L.3,50.35l.46-.19c1.05.09-.28,2.28.35,3.68l.18-.58c.45.7-.84,2.47-.78,3.33,0,.2-.21-.24-.33-.47,0,2.27.67.12,1.21,1.62-.23.38-.94-.11-.68.95,0,.29.5,1,1,1.73a5.11,5.11,0,0,1,1,2.44c.1-.39.2-.78.7-.2.58,1,.41,3.23,1.66,3.72,0,.16,0,.24-.07.28.63.64,1.76,2.22,2.4,2.41-.48.8.52,1.76,1.42,2.62a12.82,12.82,0,0,1,1.17,1.17c.29.33.37.62.08.87L12,75.64l-.16.06a3.71,3.71,0,0,0,2.54,1.53c.22.34-.09.26-.17.29,1.6,1.93,2,2,4,2.6l-.11.53c.3,0,.9.76,1.8,1.46A16.72,16.72,0,0,0,21.4,83.2a5.12,5.12,0,0,0,1.74.77.44.44,0,0,1-.35.08,7.68,7.68,0,0,1,2,.9c.66.39,1.28.89,1.94,1.2,1.28.67,2.44,1.14,3.18.45a16.34,16.34,0,0,0,1.85.06c-2.18-.7.55-.66-.28-1.19.88.12,2.09,1.1,1,.92l-.14-.13c-.64.8,2.68,1.06,2.5,1.62A51.58,51.58,0,0,0,48.21,89c-.19-.22-.38-.43-.57-.67.5,0,1-.12,1.48-.17.41.11.61.49-.46.62.61.33,1.74-.62,1.73-.78,2.13,0-.67,1,0,.89l.86-.19-.21,0c.33-.2.49-.39.73-.54a4.35,4.35,0,0,1,1.19-.42c.82-.06.51.33.83.28,0,0,.12,0,.48-.1l1.87-.42-.9-.36c.74-.48,1.72-.44.7-.83.75.32,2.43-.24,4-.81a32.54,32.54,0,0,1,3.41-1.51,6.35,6.35,0,0,1,.68-.6c.23-.19.46-.39.71-.56a18.16,18.16,0,0,1,1.68-1c-.37.09-.88-.36.19-.92.16.67.75.54,1.4.17a4.13,4.13,0,0,1,2.13-.8c-.56,0,.13-.54.74-1.09s1.05-1.17.25-1c.83-.6.37.34,1.16,0a8.79,8.79,0,0,1,1.32-1.42l.78-.67.77-.73A16.74,16.74,0,0,0,78.23,72c-.11-.15-.63.09-.45-.59l1.67-.76c.28-.56-.45-1,.61-1.6-.2,0-.51.13-.35-.25A24,24,0,0,0,84,60.85c.48-1.45,1-2.86,1.46-4.33.23-.73.49-1.45.79-2.16s.52-1.46.85-2.18c-.46.77-.41.21-.33-.41-.14.39-.42-.08-.67,0,.33-.8.71-1.6,1-2.42-.64-.52.09-2.73-.53-3l.08.8C85.93,46,84.9,48.48,84,48.23a1.19,1.19,0,0,1,.13,1,6.53,6.53,0,0,1-.5,1.1,2.81,2.81,0,0,0-.28,2.63c-.26.36-.26-.39-.51-.22.36.53.28,1.09-.15,2.05l-.07-.14A12.58,12.58,0,0,1,81.45,58l-.78,1.52a18.28,18.28,0,0,1-1,1.84l.53,0a3,3,0,0,1-.8.91c.3,1,.88-1.74,1.29-.76-.64.23-1.18,1.32-1.71,2.39s-1.24,2-1.85,2c-.55.9.63,0,.07.92l-.4.08.18.44a1,1,0,0,1-1.17.5,3.22,3.22,0,0,0,.32-.58c-.83.52-1.42,2.08-1.69,2.27l.75-.7a17.79,17.79,0,0,1-1.29,1.86l-1.58,1.76-.79.9c-.28.27-.56.54-.83.82a17.18,17.18,0,0,0-1.44,1.71l.3,0a3.66,3.66,0,0,1-.85.89,3.55,3.55,0,0,1-.66.38,6.53,6.53,0,0,0-1.77,1.19l0-.09A3.07,3.07,0,0,1,65,79.43c.36-.53-1.23.15-.72-.5-1.76,1.57-.77.92-1.74,2.4l-.5-.18a2.52,2.52,0,0,1-1.33,1.32c.75-.71-.92-.18-.12-1a4.47,4.47,0,0,0-1.56.5,10.23,10.23,0,0,0-1.12.62c-.64.41-1.17.72-1.89.35-.74,1.37,2.21-.2,1.68.22.64.13-.63,1-1.42,1.23s-1.7-.86-3.59-.34c.19,0,.18-.12.37-.17a2.1,2.1,0,0,0-1.07.31,1.59,1.59,0,0,1-1.23.15c-.4.69-1.17.14-1.19.94l1.78-.45c-1,.35-1.83,1.42-3.61,1.24a3,3,0,0,1,.93-.63c-.52-.17-.94.33-1.48.11.07-.75,2.19-.5,3.18-1.24-.57-.26-2,.88-1.55-.06-.31.6-.8.64-1.36.66a2.62,2.62,0,0,0-1.83.35l.06-.48a3,3,0,0,1-1,.34l.68-.65c-1.06.57-2.07-.31-3.08-.13,1.06.06,1.18.19,1.15.38s-.23.43.24.58C41,85.82,42.17,84,39.23,84c.4,0,1.47.36.83.56a3.43,3.43,0,0,1-1.59-.7c-1.95-.2.23.53-.63.69-.59-.67-1,.09-1.91.14l.09-.48A3.7,3.7,0,0,0,35,84.07a.54.54,0,0,0-.38.23c-.17.21-.32.41-1.27,0l1-.43-1.07-.1.35-.47a4,4,0,0,1-1.35-.06A4.27,4.27,0,0,1,31,82.7c.14.41-.41.78-1.37.44-.55-.5.51-.3-.85-.72.41-.17.87-.41,1.3.22.11-.13.39-.18.5-.3a5.54,5.54,0,0,0-2.16-.87,1.72,1.72,0,0,1,.47.29l-1.08,0-1.07-.15c-.21-.3.08-.32.37-.34a11.72,11.72,0,0,1-1.32-.29c.31-.28.46-.66,1.3-.46L25.17,80c0-.2-.66-.85-.37-.86-.77-.76-2.64-.68-3.66-1.73a.93.93,0,0,1-.54-.15c-.51-.44-.93-.93-1.42-1.37a6.35,6.35,0,0,0-.8-.63,4.61,4.61,0,0,0-1-.58l-.19-1.12c-1-.72.31,1.47-1.42.27-1.25-.84,0-.8-.21-1.3A3.91,3.91,0,0,1,13,70.43C13.37,70.67,13.52,71,13.84,71.28Zm-8-13.05c.2.25.69.69.5,1C5.69,59.1,5.84,58.76,5.82,58.23ZM3.76,34.76c.1.27-.07.59-.34.93A2.12,2.12,0,0,1,3.76,34.76ZM57.82,3.23h0C57.14,2.8,57.36,3,57.82,3.23ZM59.2,4c.17,0,.18-.07.15-.16-.15.08-.48,0-.84-.2C58.57,3.75,58.73,3.9,59.2,4ZM53.88,87.72l-.32,0C54.18,87.36,54,87.53,53.88,87.72Z"/><path class="cls-2" d="M3.78,37.56a.41.41,0,0,1-.27.08C3.57,37.77,3.66,37.79,3.78,37.56Z"/><path class="cls-2" d="M21.11,77.41l0,0a.19.19,0,0,0,.09,0Z"/><path class="cls-2" d="M36.45,5.71a1.52,1.52,0,0,1-.6-.16C35.86,5.66,36,5.74,36.45,5.71Z"/><path class="cls-2" d="M66.93,6.88,66,6.47a1.89,1.89,0,0,1,.68.6C66.73,7,66.66,6.72,66.93,6.88Z"/><path class="cls-2" d="M71.83,14.34c.14.05.22.19.36.24l.13-.19C71.87,14,71.45,13.86,71.83,14.34Z"/><path class="cls-2" d="M66.85,8.71c-.16.4.46.54,1,.91l-.09-.08C68.27,9.19,67.58,8.91,66.85,8.71Z"/><path class="cls-2" d="M68,9.7a4.54,4.54,0,0,1,.5.36C68.72,9.93,68.35,9.87,68,9.7Z"/><path class="cls-2" d="M61.12,4.43c.26.23.4-.39.5-.16C62.17,4,59.37,3.92,61.12,4.43Z"/><polygon class="cls-2" points="66.58 10.11 66.66 9.57 66.12 9.71 66.58 10.11"/><path class="cls-2" d="M62.24,7.21l.89.58c0-.08.17-.07.33,0C62.88,7.46,62.28,7.06,62.24,7.21Z"/><path class="cls-2" d="M63.46,7.76a2.58,2.58,0,0,0,.78.36A4.12,4.12,0,0,0,63.46,7.76Z"/><polygon class="cls-2" points="65.28 9.49 65.06 9.24 64.45 8.82 65.28 9.49"/><path class="cls-2" d="M51.5,3.43l-1.17,0c-.14.15.15.3.59.3C51.21,3.62,51.65,3.62,51.5,3.43Z"/><path class="cls-2" d="M54.54,5.59c-.27-.18-.26-.29-.38-.5l-.2.6Z"/><path class="cls-2" d="M51.33,4.94c-.14.15-1.68.24-.28.42C51.19,5.19,52.32,5.26,51.33,4.94Z"/><polygon class="cls-2" points="34.42 4.35 34.7 4.27 34.45 3.28 34.42 4.35"/><path class="cls-2" d="M21.88,12.22c1.22-.45-.08-.69,1.07-1,.14-.36-.94.28-.79-.06C21.63,11.76,21.21,11.84,21.88,12.22Z"/><path class="cls-2" d="M22.16,11.13a2.39,2.39,0,0,0,.27-.33A1.5,1.5,0,0,0,22.16,11.13Z"/><polygon class="cls-2" points="87.69 47.65 87.95 46.73 87.58 47.31 87.69 47.65"/><path class="cls-2" d="M87,45.86l.66-.21-.56-.55C87.14,45.31,87.18,45.71,87,45.86Z"/><path class="cls-2" d="M6.37,55.68l-.16,0c-.14.17-.1.36,0,.73Z"/><polygon class="cls-2" points="10.38 65.82 10.29 65.65 9.98 66.27 10.38 65.82"/><path class="cls-2" d="M16.68,72.46a7.22,7.22,0,0,1-.88-.78C16.4,72.22,16.25,73,16.68,72.46Z"/><g class="cls-3"><path class="cls-4" d="M27,65.32l5.31-.66h1.06l5.84.66V67.1H27ZM42.79,37.1H46l12.2,30H53.25L42.58,40.48H43.8L33,67.1h-2.5Zm-6.2,18.22H50.91l.85,2h-16ZM47,65.32l6.68-.66h1.07l6.58.66V67.1H47Z"/></g><g class="cls-5"><path class="cls-4" d="M26.89,24.9V22.21h19V24.9l-8.84,1H35.73Zm10.2,38.72,8.84,1v2.69h-19V64.63l8.84-1ZM33.35,43.08c0-6.93,0-13.94-.2-20.87h6.32c-.2,6.8-.2,13.8-.2,20.87V48.2c0,5.18,0,12.19.2,19.12H33.15c.2-6.8.2-13.8.2-20.87Z"/></g><g class="cls-6"><g class="cls-7"><path class="cls-4" d="M24.89,62.32v-2.4M33.5,47.8,55.32,22.1h3.74L33.5,51.7ZM48,24.5V22.1H61.37v2.4L55,25.4l-1.16.3Z"/></g></g></g></g></svg>