<svg xmlns="http://www.w3.org/2000/svg" xmlns:xlink="http://www.w3.org/1999/xlink" viewBox="0 0 84 84"><defs><style>.cls-1{fill:url(#linear-gradient);}.cls-2{opacity:0.9;}.cls-3{fill:#fff;}.cls-4{opacity:0.47;}.cls-5{opacity:0.66;}.cls-6{opacity:0.42;}</style><linearGradient id="linear-gradient" x1="6.77" y1="19.12" x2="77.23" y2="64.88" gradientUnits="userSpaceOnUse"><stop offset="0.33" stop-color="blue" stop-opacity="0.83"/><stop offset="0.4" stop-color="#0000fb" stop-opacity="0.83"/><stop offset="0.46" stop-color="#00e" stop-opacity="0.84"/><stop offset="0.53" stop-color="#0000d7" stop-opacity="0.85"/><stop offset="0.59" stop-color="#0000b8" stop-opacity="0.87"/><stop offset="0.65" stop-color="#000090" stop-opacity="0.9"/><stop offset="0.71" stop-color="#00005f" stop-opacity="0.92"/><stop offset="0.76" stop-color="#000026" stop-opacity="0.96"/><stop offset="0.79" stop-opacity="0.98"/></linearGradient></defs><g id="Layer_2" data-name="Layer 2"><g id="Layer_1-2" data-name="Layer 1"><circle class="cls-1" cx="42" cy="42" r="42"/><g class="cls-2"><path class="cls-3" d="M25.62,62.22l5.3-.66H32l5.84.66V64H25.62ZM41.43,34h3.18L56.82,64H51.88L41.22,37.38h1.22L31.61,64H29.12ZM35.22,52.22H49.55l.85,2.05h-16Zm10.45,10,6.69-.66h1.06l6.58.66V64H45.67Z"/></g><g class="cls-4"><path class="cls-3" d="M25.53,21.8V19.11h19V21.8l-8.84,1H34.37Zm10.2,38.72,8.84,1v2.69h-19V61.53l8.84-1ZM32,40c0-6.93,0-13.94-.21-20.87h6.33c-.21,6.8-.21,13.8-.21,20.87V45.1c0,5.18,0,12.19.21,19.12H31.78c.21-6.8.21-13.8.21-20.87Z"/></g><g class="cls-5"><g class="cls-6"><path class="cls-3" d="M23.53,59.22v-2.4m8.6-12.13L54,19H57.7L32.13,48.6ZM46.66,21.4V19H60v2.4l-6.38.9-1.16.3Z"/></g></g></g></g></svg>